<?xml version="1.0" encoding="UTF-8" standalone="no"?>
<!DOCTYPE svg PUBLIC "-//W3C//DTD SVG 1.1//EN"
 "http://www.w3.org/Graphics/SVG/1.1/DTD/svg11.dtd">
<!-- Generated by graphviz version 2.44.0 (20200408.0750)
 -->
<!-- Title: dependency&#45;cruiser output Pages: 1 -->
<svg width="429pt" height="234pt"
 viewBox="0.00 0.00 429.02 234.00" xmlns="http://www.w3.org/2000/svg" xmlns:xlink="http://www.w3.org/1999/xlink">
<g id="graph0" class="graph" transform="scale(1 1) rotate(0) translate(4 230)">
<title>dependency&#45;cruiser output</title>
<polygon fill="white" stroke="transparent" points="-4,4 -4,-230 425.02,-230 425.02,4 -4,4"/>
<g id="clust1" class="cluster">
<title>cluster_client</title>
<path fill="#ffffff" stroke="black" stroke-width="2" d="M20,-8C20,-8 401.02,-8 401.02,-8 407.02,-8 413.02,-14 413.02,-20 413.02,-20 413.02,-206 413.02,-206 413.02,-212 407.02,-218 401.02,-218 401.02,-218 20,-218 20,-218 14,-218 8,-212 8,-206 8,-206 8,-20 8,-20 8,-14 14,-8 20,-8"/>
<text text-anchor="middle" x="210.51" y="-205.9" font-family="Helvetica,sans-Serif" font-weight="bold" font-size="9.00">client</text>
</g>
<g id="clust2" class="cluster">
<title>cluster_client/src</title>
<path fill="#ffffff" stroke="black" stroke-width="2" d="M28,-16C28,-16 393.02,-16 393.02,-16 399.02,-16 405.02,-22 405.02,-28 405.02,-28 405.02,-153 405.02,-153 405.02,-159 399.02,-165 393.02,-165 393.02,-165 28,-165 28,-165 22,-165 16,-159 16,-153 16,-153 16,-28 16,-28 16,-22 22,-16 28,-16"/>
<text text-anchor="middle" x="210.51" y="-152.9" font-family="Helvetica,sans-Serif" font-weight="bold" font-size="9.00">src</text>
</g>
<g id="clust3" class="cluster">
<title>cluster_client/src/components</title>
<path fill="#ffffff" stroke="black" stroke-width="2" d="M317.52,-24C317.52,-24 374.51,-24 374.51,-24 380.51,-24 386.51,-30 386.51,-36 386.51,-36 386.51,-65 386.51,-65 386.51,-71 380.51,-77 374.51,-77 374.51,-77 317.52,-77 317.52,-77 311.52,-77 305.52,-71 305.52,-65 305.52,-65 305.52,-36 305.52,-36 305.52,-30 311.52,-24 317.52,-24"/>
<text text-anchor="middle" x="346.02" y="-64.9" font-family="Helvetica,sans-Serif" font-weight="bold" font-size="9.00">components</text>
</g>
<g id="clust4" class="cluster">
<title>cluster_client/src/handlers</title>
<path fill="#ffffff" stroke="black" stroke-width="2" d="M210,-85C210,-85 275.02,-85 275.02,-85 281.02,-85 287.02,-91 287.02,-97 287.02,-97 287.02,-126 287.02,-126 287.02,-132 281.02,-138 275.02,-138 275.02,-138 210,-138 210,-138 204,-138 198,-132 198,-126 198,-126 198,-97 198,-97 198,-91 204,-85 210,-85"/>
<text text-anchor="middle" x="242.51" y="-125.9" font-family="Helvetica,sans-Serif" font-weight="bold" font-size="9.00">handlers</text>
</g>
<g id="clust5" class="cluster">
<title>cluster_client/src/init</title>
<path fill="#ffffff" stroke="black" stroke-width="2" d="M36,-85C36,-85 82,-85 82,-85 88,-85 94,-91 94,-97 94,-97 94,-126 94,-126 94,-132 88,-138 82,-138 82,-138 36,-138 36,-138 30,-138 24,-132 24,-126 24,-126 24,-97 24,-97 24,-91 30,-85 36,-85"/>
<text text-anchor="middle" x="59" y="-125.9" font-family="Helvetica,sans-Serif" font-weight="bold" font-size="9.00">init</text>
</g>
<g id="clust6" class="cluster">
<title>cluster_client/src/listeners</title>
<path fill="#ffffff" stroke="black" stroke-width="2" d="M114,-85C114,-85 178,-85 178,-85 184,-85 190,-91 190,-97 190,-97 190,-126 190,-126 190,-132 184,-138 178,-138 178,-138 114,-138 114,-138 108,-138 102,-132 102,-126 102,-126 102,-97 102,-97 102,-91 108,-85 114,-85"/>
<text text-anchor="middle" x="146" y="-125.9" font-family="Helvetica,sans-Serif" font-weight="bold" font-size="9.00">listeners</text>
</g>
<g id="clust7" class="cluster">
<title>cluster_client/src/logic</title>
<path fill="#ffffff" stroke="black" stroke-width="2" d="M307.02,-85C307.02,-85 385.02,-85 385.02,-85 391.02,-85 397.02,-91 397.02,-97 397.02,-97 397.02,-126 397.02,-126 397.02,-132 391.02,-138 385.02,-138 385.02,-138 307.02,-138 307.02,-138 301.02,-138 295.02,-132 295.02,-126 295.02,-126 295.02,-97 295.02,-97 295.02,-91 301.02,-85 307.02,-85"/>
<text text-anchor="middle" x="346.02" y="-125.9" font-family="Helvetica,sans-Serif" font-weight="bold" font-size="9.00">logic</text>
</g>
<!-- client/data.js -->
<g id="node1" class="node">
<title>client/data.js</title>
<g id="a_node1"><a xlink:href="../client/data.js" xlink:title="data.js">
<path fill="#ffffcc" stroke="black" d="M366.82,-191.3C366.82,-191.3 325.22,-191.3 325.22,-191.3 322.12,-191.3 319.02,-188.2 319.02,-185.1 319.02,-185.1 319.02,-178.9 319.02,-178.9 319.02,-175.8 322.12,-172.7 325.22,-172.7 325.22,-172.7 366.82,-172.7 366.82,-172.7 369.92,-172.7 373.02,-175.8 373.02,-178.9 373.02,-178.9 373.02,-185.1 373.02,-185.1 373.02,-188.2 369.92,-191.3 366.82,-191.3"/>
<text text-anchor="middle" x="346.02" y="-179.3" font-family="Helvetica,sans-Serif" font-size="9.00">data.js</text>
</a>
</g>
</g>
<!-- client/src/components/render&#45;list.js -->
<g id="node2" class="node">
<title>client/src/components/render&#45;list.js</title>
<g id="a_node2"><a xlink:href="../client/src/components/render-list.js" xlink:title="render&#45;list.js">
<path fill="#ffffcc" stroke="black" d="M372.31,-50.3C372.31,-50.3 319.72,-50.3 319.72,-50.3 316.62,-50.3 313.52,-47.2 313.52,-44.1 313.52,-44.1 313.52,-37.9 313.52,-37.9 313.52,-34.8 316.62,-31.7 319.72,-31.7 319.72,-31.7 372.31,-31.7 372.31,-31.7 375.41,-31.7 378.51,-34.8 378.51,-37.9 378.51,-37.9 378.51,-44.1 378.51,-44.1 378.51,-47.2 375.41,-50.3 372.31,-50.3"/>
<text text-anchor="middle" x="346.02" y="-38.3" font-family="Helvetica,sans-Serif" font-size="9.00">render&#45;list.js</text>
</a>
</g>
</g>
<!-- client/src/handlers/add&#45;product.js -->
<g id="node3" class="node">
<title>client/src/handlers/add&#45;product.js</title>
<g id="a_node3"><a xlink:href="../client/src/handlers/add-product.js" xlink:title="add&#45;product.js">
<path fill="#ffffcc" stroke="black" d="M272.82,-111.3C272.82,-111.3 212.2,-111.3 212.2,-111.3 209.1,-111.3 206,-108.2 206,-105.1 206,-105.1 206,-98.9 206,-98.9 206,-95.8 209.1,-92.7 212.2,-92.7 212.2,-92.7 272.82,-92.7 272.82,-92.7 275.92,-92.7 279.02,-95.8 279.02,-98.9 279.02,-98.9 279.02,-105.1 279.02,-105.1 279.02,-108.2 275.92,-111.3 272.82,-111.3"/>
<text text-anchor="middle" x="242.51" y="-99.3" font-family="Helvetica,sans-Serif" font-size="9.00">add&#45;product.js</text>
</a>
</g>
</g>
<!-- client/src/handlers/add&#45;product.js&#45;&gt;client/data.js -->
<g id="edge1" class="edge">
<title>client/src/handlers/add&#45;product.js&#45;&gt;client/data.js</title>
<path fill="none" stroke="#000000" stroke-width="2" stroke-opacity="0.200000" d="M255.55,-111.49C273.56,-125.69 307.58,-152.5 328.09,-168.66"/>
<polygon fill="#000000" fill-opacity="0.200000" stroke="#000000" stroke-width="2" stroke-opacity="0.200000" points="326.98,-170.46 332.99,-172.52 329.58,-167.16 326.98,-170.46"/>
</g>
<!-- client/src/handlers/add&#45;product.js&#45;&gt;client/src/components/render&#45;list.js -->
<g id="edge2" class="edge">
<title>client/src/handlers/add&#45;product.js&#45;&gt;client/src/components/render&#45;list.js</title>
<path fill="none" stroke="#000000" stroke-width="2" stroke-opacity="0.200000" d="M259.37,-92.47C276.8,-81.99 304.88,-65.12 324.1,-53.57"/>
<polygon fill="#000000" fill-opacity="0.200000" stroke="#000000" stroke-width="2" stroke-opacity="0.200000" points="325.21,-55.35 329.27,-50.46 323.04,-51.75 325.21,-55.35"/>
</g>
<!-- client/src/logic/is&#45;product&#45;exist.js -->
<g id="node4" class="node">
<title>client/src/logic/is&#45;product&#45;exist.js</title>
<g id="a_node4"><a xlink:href="../client/src/logic/is-product-exist.js" xlink:title="is&#45;product&#45;exist.js">
<path fill="#ffffcc" stroke="black" d="M382.81,-111.3C382.81,-111.3 309.22,-111.3 309.22,-111.3 306.12,-111.3 303.02,-108.2 303.02,-105.1 303.02,-105.1 303.02,-98.9 303.02,-98.9 303.02,-95.8 306.12,-92.7 309.22,-92.7 309.22,-92.7 382.81,-92.7 382.81,-92.7 385.91,-92.7 389.02,-95.8 389.02,-98.9 389.02,-98.9 389.02,-105.1 389.02,-105.1 389.02,-108.2 385.91,-111.3 382.81,-111.3"/>
<text text-anchor="middle" x="346.02" y="-99.3" font-family="Helvetica,sans-Serif" font-size="9.00">is&#45;product&#45;exist.js</text>
</a>
</g>
</g>
<!-- client/src/handlers/add&#45;product.js&#45;&gt;client/src/logic/is&#45;product&#45;exist.js -->
<g id="edge3" class="edge">
<title>client/src/handlers/add&#45;product.js&#45;&gt;client/src/logic/is&#45;product&#45;exist.js</title>
<path fill="none" stroke="#000000" stroke-width="2" stroke-opacity="0.200000" d="M279.3,-102C284.91,-102 290.8,-102 296.64,-102"/>
<polygon fill="#000000" fill-opacity="0.200000" stroke="#000000" stroke-width="2" stroke-opacity="0.200000" points="296.95,-104.1 302.95,-102 296.95,-99.9 296.95,-104.1"/>
</g>
<!-- client/src/init/index.js -->
<g id="node5" class="node">
<title>client/src/init/index.js</title>
<g id="a_node5"><a xlink:href="../client/src/init/index.js" xlink:title="index.js">
<path fill="#ffffcc" stroke="black" d="M79.8,-111.3C79.8,-111.3 38.2,-111.3 38.2,-111.3 35.1,-111.3 32,-108.2 32,-105.1 32,-105.1 32,-98.9 32,-98.9 32,-95.8 35.1,-92.7 38.2,-92.7 38.2,-92.7 79.8,-92.7 79.8,-92.7 82.9,-92.7 86,-95.8 86,-98.9 86,-98.9 86,-105.1 86,-105.1 86,-108.2 82.9,-111.3 79.8,-111.3"/>
<text text-anchor="middle" x="59" y="-99.3" font-family="Helvetica,sans-Serif" font-size="9.00">index.js</text>
</a>
</g>
</g>
<!-- client/src/listeners/listener&#45;add.js -->
<g id="node6" class="node">
<title>client/src/listeners/listener&#45;add.js</title>
<g id="a_node6"><a xlink:href="../client/src/listeners/listener-add.js" xlink:title="listener&#45;add.js">
<path fill="#ffffcc" stroke="black" d="M175.81,-111.3C175.81,-111.3 116.2,-111.3 116.2,-111.3 113.1,-111.3 110,-108.2 110,-105.1 110,-105.1 110,-98.9 110,-98.9 110,-95.8 113.1,-92.7 116.2,-92.7 116.2,-92.7 175.81,-92.7 175.81,-92.7 178.91,-92.7 182.01,-95.8 182.01,-98.9 182.01,-98.9 182.01,-105.1 182.01,-105.1 182.01,-108.2 178.91,-111.3 175.81,-111.3"/>
<text text-anchor="middle" x="146" y="-99.3" font-family="Helvetica,sans-Serif" font-size="9.00">listener&#45;add.js</text>
</a>
</g>
</g>
<!-- client/src/init/index.js&#45;&gt;client/src/listeners/listener&#45;add.js -->
<g id="edge4" class="edge">
<title>client/src/init/index.js&#45;&gt;client/src/listeners/listener&#45;add.js</title>
<path fill="none" stroke="#000000" stroke-width="2" stroke-opacity="0.200000" d="M86.43,-102C91.87,-102 97.72,-102 103.55,-102"/>
<polygon fill="#000000" fill-opacity="0.200000" stroke="#000000" stroke-width="2" stroke-opacity="0.200000" points="103.84,-104.1 109.84,-102 103.84,-99.9 103.84,-104.1"/>
</g>
<!-- client/src/listeners/listener&#45;add.js&#45;&gt;client/src/handlers/add&#45;product.js -->
<g id="edge5" class="edge">
<title>client/src/listeners/listener&#45;add.js&#45;&gt;client/src/handlers/add&#45;product.js</title>
<path fill="none" stroke="#000000" stroke-width="2" stroke-opacity="0.200000" d="M182.19,-102C187.9,-102 193.85,-102 199.7,-102"/>
<polygon fill="#000000" fill-opacity="0.200000" stroke="#000000" stroke-width="2" stroke-opacity="0.200000" points="199.97,-104.1 205.97,-102 199.97,-99.9 199.97,-104.1"/>
</g>
</g>
</svg>
